<svg width="79" height="42" viewBox="0 0 79 42" fill="none" xmlns="http://www.w3.org/2000/svg">
<path d="M14.048 12.564C14.588 12.312 15.668 12.564 15.884 13.5C16.064 14.256 15.524 14.832 15.02 15.084C13.508 15.84 11.276 16.272 9.15198 16.272C6.81198 16.272 4.75998 15.768 3.60798 15.228C2.77998 14.832 1.95198 14.292 1.73598 13.248C1.19598 10.692 1.30398 5.904 1.73598 3.456C1.91598 2.484 2.67198 1.512 3.60798 1.512H13.976C14.48 1.512 15.2 2.052 15.2 2.808C15.2 3.456 14.624 4.14 14.048 4.14H5.04798C4.54398 4.14 4.54398 4.5 4.50798 4.788C4.21998 6.696 4.07598 9.504 4.43598 12.024C4.47198 12.276 4.50798 12.564 4.79598 12.708C5.76798 13.212 7.38798 13.536 9.33198 13.536C11.42 13.536 13.112 12.996 14.048 12.564ZM26.216 2.232C26.684 6.264 26.576 11.7 26.216 15.66C26.18 16.38 25.316 16.884 24.596 16.812C23.84 16.776 23.264 16.164 23.3 15.408C23.444 13.716 23.516 12.096 23.552 10.476H20.06C20.024 12.24 19.916 13.968 19.772 15.48C19.736 16.2 18.872 16.704 18.152 16.632C17.396 16.596 16.82 15.984 16.856 15.228C17.216 10.8 17.18 7.164 16.856 2.664C16.82 1.908 17.36 1.368 18.116 1.26C18.872 1.188 19.664 1.62 19.772 2.412C19.952 4.104 20.06 5.94 20.06 7.812H23.552C23.516 6.084 23.444 4.32 23.3 2.484C23.264 1.728 23.804 1.188 24.56 1.08C25.316 1.008 26.108 1.44 26.216 2.232ZM26.648 24.336C26.648 28.728 21.464 30.744 15.02 30.744C8.57598 30.744 3.39198 28.728 3.39198 24.336C3.39198 19.944 8.57598 17.928 15.02 17.928C21.464 17.928 26.648 19.944 26.648 24.336ZM23.696 24.372C23.696 21.78 20.168 20.628 14.984 20.628C9.83598 20.628 6.34398 21.78 6.34398 24.372C6.34398 26.928 9.83598 28.044 14.984 28.044C20.168 28.044 23.696 26.928 23.696 24.372Z" fill="#E53880"/>
<path fill-rule="evenodd" clip-rule="evenodd" d="M3.39576 15.6807L3.39225 15.6791C2.54386 15.2733 1.51423 14.6417 1.24656 13.3503C0.965632 12.0199 0.857905 10.1423 0.871494 8.3078C0.885112 6.46931 1.02104 4.63023 1.24359 3.36911L1.24432 3.36495C1.35042 2.79202 1.6242 2.22068 2.01706 1.78476C2.40958 1.34923 2.95809 1.012 3.60798 1.012H13.976C14.3864 1.012 14.8095 1.2195 15.1203 1.51299C15.4408 1.81567 15.7 2.26424 15.7 2.808C15.7 3.27258 15.4983 3.71731 15.2196 4.0424C14.9455 4.36216 14.5304 4.64 14.048 4.64H5.04798C5.04192 4.64 5.03634 4.6401 5.03121 4.64027C5.03057 4.64366 5.02991 4.64726 5.02925 4.65108C5.0251 4.67489 5.02143 4.70209 5.01738 4.73627C5.01623 4.74593 5.01479 4.75857 5.01321 4.77248C5.01035 4.79759 5.00702 4.82682 5.00412 4.85002L5.00254 4.86265C4.71994 6.73488 4.57941 9.49251 4.93095 11.9533L4.9324 11.9634C4.94133 12.026 4.94807 12.0732 4.95721 12.1189C4.96648 12.1652 4.97575 12.1963 4.98453 12.2179C4.99277 12.2381 4.99894 12.2458 5.00086 12.248C5.00196 12.2493 5.00599 12.254 5.01959 12.2608L5.02616 12.2641C5.89772 12.716 7.4268 13.036 9.33198 13.036C11.3368 13.036 12.9572 12.5166 13.8376 12.1104C14.2591 11.9142 14.8116 11.9342 15.2761 12.1235C15.7609 12.3209 16.2192 12.7313 16.3708 13.386C16.6283 14.472 15.8397 15.2332 15.2436 15.5312C13.6426 16.3317 11.3283 16.772 9.15198 16.772C6.75152 16.772 4.62493 16.2569 3.39576 15.6807ZM15.884 13.5C15.668 12.564 14.588 12.312 14.048 12.564C13.112 12.996 11.42 13.536 9.33198 13.536C7.38798 13.536 5.76798 13.212 4.79598 12.708C4.5133 12.5667 4.4734 12.2866 4.43798 12.038L4.43598 12.024C4.07598 9.504 4.21998 6.696 4.50798 4.788C4.51068 4.7664 4.51318 4.7444 4.5157 4.72217C4.54681 4.44803 4.58178 4.14 5.04798 4.14H14.048C14.624 4.14 15.2 3.456 15.2 2.808C15.2 2.052 14.48 1.512 13.976 1.512H3.60798C2.67198 1.512 1.91598 2.484 1.73598 3.456C1.30398 5.904 1.19598 10.692 1.73598 13.248C1.95198 14.292 2.77998 14.832 3.60798 15.228C4.75998 15.768 6.81198 16.272 9.15198 16.272C11.276 16.272 13.508 15.84 15.02 15.084C15.524 14.832 16.064 14.256 15.884 13.5ZM26.7126 2.17435C27.1855 6.24844 27.076 11.7158 26.7148 15.6961C26.6825 16.2556 26.335 16.6856 25.9398 16.949C25.5453 17.212 25.0406 17.3555 24.5593 17.3108C23.5437 17.2557 22.7512 16.4216 22.8005 15.3842L22.801 15.3749L22.8018 15.3656C22.9296 13.864 23.0003 12.4182 23.0395 10.976H20.548C20.5034 12.5781 20.402 14.1365 20.2707 15.5174C20.238 16.0762 19.8907 16.5058 19.4958 16.769C19.1013 17.032 18.5966 17.1755 18.1153 17.1308C17.0996 17.0757 16.3072 16.2415 16.3565 15.2042L16.3569 15.1958L16.3576 15.1875C16.7152 10.7893 16.6798 7.17923 16.3573 2.69991L16.3564 2.68779C16.3058 1.62509 17.0857 0.902105 18.0453 0.765026L18.0569 0.763366L18.0686 0.762252C18.9992 0.673627 20.1118 1.20338 20.2674 2.34444L20.2684 2.35176L20.2692 2.35911C20.4349 3.91667 20.5402 5.59495 20.5575 7.312H23.0404C23.0014 5.75443 22.9305 4.16718 22.8015 2.5231L22.8009 2.51545L22.8005 2.50778C22.7499 1.44508 23.5297 0.722105 24.4893 0.585026L24.5009 0.583366L24.5126 0.582253C25.4432 0.493624 26.5558 1.02338 26.7114 2.16444L26.7126 2.17435ZM23.5406 7.312C23.5447 7.47902 23.5485 7.64568 23.552 7.812H20.06C20.06 5.94 19.952 4.104 19.772 2.412C19.664 1.62 18.872 1.188 18.116 1.26C17.36 1.368 16.82 1.908 16.856 2.664C17.18 7.164 17.216 10.8 16.856 15.228C16.82 15.984 17.396 16.596 18.152 16.632C18.872 16.704 19.736 16.2 19.772 15.48C19.916 13.968 20.024 12.24 20.06 10.476H23.552C23.5483 10.6426 23.5442 10.8093 23.5397 10.976C23.5004 12.43 23.4292 13.89 23.3 15.408C23.264 16.164 23.84 16.776 24.596 16.812C25.316 16.884 26.18 16.38 26.216 15.66C26.576 11.7 26.684 6.264 26.216 2.232C26.108 1.44 25.316 1.008 24.56 1.08C23.804 1.188 23.264 1.728 23.3 2.484C23.4301 4.14328 23.5015 5.74376 23.5406 7.312ZM23.4745 29.634C21.2764 30.7354 18.2825 31.244 15.02 31.244C11.7575 31.244 8.76354 30.7354 6.56549 29.634C4.35103 28.5244 2.89198 26.7768 2.89198 24.336C2.89198 21.8952 4.35103 20.1476 6.56549 19.038C8.76354 17.9366 11.7575 17.428 15.02 17.428C18.2825 17.428 21.2764 17.9366 23.4745 19.038C25.6889 20.1476 27.148 21.8952 27.148 24.336C27.148 26.7768 25.6889 28.5244 23.4745 29.634ZM21.0983 21.9922C19.6552 21.415 17.5516 21.128 14.984 21.128C12.4345 21.128 10.3495 21.415 8.9206 21.9917C7.49731 22.5661 6.84398 23.3666 6.84398 24.372C6.84398 25.3544 7.49068 26.1385 8.91703 26.7014C10.3471 27.2658 12.4333 27.544 14.984 27.544C17.5528 27.544 19.6577 27.2658 21.1018 26.7009C22.544 26.1367 23.196 25.3516 23.196 24.372C23.196 23.3694 22.5373 22.5679 21.0983 21.9922ZM15.02 30.744C21.464 30.744 26.648 28.728 26.648 24.336C26.648 19.944 21.464 17.928 15.02 17.928C8.57598 17.928 3.39198 19.944 3.39198 24.336C3.39198 28.728 8.57598 30.744 15.02 30.744ZM14.984 20.628C20.168 20.628 23.696 21.78 23.696 24.372C23.696 26.928 20.168 28.044 14.984 28.044C9.83598 28.044 6.34398 26.928 6.34398 24.372C6.34398 21.78 9.83598 20.628 14.984 20.628Z" fill="#E53880"/>
<path d="M52.408 23.42C52.3 23.96 51.652 24.5 50.788 24.356C49.924 24.212 49.564 23.492 49.636 23.06C49.924 21.404 50.284 16.292 50.104 15.068C50.068 14.78 50.068 14.78 49.564 14.78H33.652C33.076 14.78 32.5 14.096 32.5 13.448C32.5 12.692 33.22 12.152 33.724 12.152H50.932C51.868 12.152 52.66 12.692 52.876 13.736C53.236 15.68 52.912 21.008 52.408 23.42ZM30.268 28.82C29.512 28.712 28.936 28.028 29.044 27.308C29.152 26.516 29.836 26.012 30.556 26.12C36.244 26.66 49.312 26.768 54.928 26.12C55.72 26.012 56.44 26.588 56.476 27.308C56.548 28.028 55.936 28.712 55.252 28.82C51.076 29.36 35.128 29.504 30.268 28.82ZM35.38 32.456C35.092 34.04 34.948 35.948 35.164 37.604C35.164 37.712 35.236 37.784 35.452 37.856C36.604 38.324 40.6 38.72 43.336 38.72C46.648 38.72 50.212 38.252 52.66 37.46C53.164 37.244 54.064 37.496 54.28 38.252C54.532 38.972 54.172 39.692 53.704 39.908C51.112 41.024 46.612 41.348 43.336 41.384C40.06 41.384 36.136 41.096 34.264 40.34C33.4 40.016 32.572 39.404 32.392 38.36C32.104 36.452 32.284 33.752 32.608 32.024C32.716 31.448 33.472 30.908 34.264 31.052C35.056 31.196 35.452 31.916 35.38 32.456Z" fill="#E53880"/>
<path fill-rule="evenodd" clip-rule="evenodd" d="M49.636 23.06C49.564 23.492 49.924 24.212 50.788 24.356C51.652 24.5 52.3 23.96 52.408 23.42C52.912 21.008 53.236 15.68 52.876 13.736C52.66 12.692 51.868 12.152 50.932 12.152H33.724C33.22 12.152 32.5 12.692 32.5 13.448C32.5 14.096 33.076 14.78 33.652 14.78H49.564C49.8638 14.78 49.9853 14.78 50.0421 14.8406C50.0807 14.8819 50.0894 14.9513 50.104 15.068C50.284 16.292 49.924 21.404 49.636 23.06ZM49.1428 22.9778L49.1434 22.9743C49.2824 22.1751 49.4431 20.5063 49.5465 18.8705C49.598 18.0562 49.6347 17.2584 49.6474 16.5907C49.6584 16.0164 49.6509 15.5635 49.6253 15.28C49.6062 15.28 49.5858 15.28 49.564 15.28H33.652C33.1695 15.28 32.7545 15.0022 32.4804 14.6824C32.2017 14.3573 32 13.9126 32 13.448C32 12.9043 32.2592 12.4557 32.5797 12.153C32.8905 11.8595 33.3136 11.652 33.724 11.652H50.932C51.4962 11.652 52.0399 11.8154 52.4806 12.1576C52.9243 12.502 53.2356 13.0061 53.3656 13.6347L53.3678 13.6449L53.3677 13.645C53.5596 14.6817 53.5643 16.5536 53.4653 18.4289C53.3658 20.3151 53.1572 22.2781 52.8978 23.5205C52.7307 24.3484 51.8097 25.0332 50.7058 24.8492C49.5913 24.6635 49.0219 23.7036 49.1428 22.9778ZM30.1983 29.3151L30.1973 29.315C29.2123 29.1743 28.3958 28.2728 28.549 27.2372C28.6938 26.1885 29.6142 25.4813 30.6157 25.6234C36.2831 26.1598 49.2943 26.2658 54.866 25.6238C55.9108 25.4845 56.9153 26.2356 56.9747 27.2706C57.0222 27.7841 56.8273 28.2599 56.5311 28.6142C56.2337 28.97 55.8055 29.2388 55.33 29.3139L55.3162 29.3161L55.3161 29.3159C53.1925 29.5905 48.1312 29.761 43.0183 29.779C37.907 29.797 32.6695 29.6629 30.1983 29.3151ZM56.476 27.308C56.44 26.588 55.72 26.012 54.928 26.12C49.312 26.768 36.244 26.66 30.556 26.12C29.836 26.012 29.152 26.516 29.044 27.308C28.936 28.028 29.512 28.712 30.268 28.82C35.128 29.504 51.076 29.36 55.252 28.82C55.936 28.712 56.548 28.028 56.476 27.308ZM35.8741 32.5338L35.8719 32.5455C35.5984 34.0499 35.4611 35.8379 35.6418 37.3934C35.8782 37.4891 36.2991 37.5943 36.8726 37.6962C37.4371 37.7965 38.1179 37.8884 38.8527 37.9663C40.3232 38.1223 41.9884 38.22 43.336 38.22C46.6038 38.22 50.103 37.7582 52.4871 36.9904C52.8826 36.8303 53.3647 36.8619 53.7694 37.0296C54.1921 37.2047 54.5958 37.5557 54.7566 38.1004C55.077 39.0376 54.6326 40.0301 53.9135 40.362L53.9018 40.3674L53.9017 40.3673C52.5393 40.9539 50.7096 41.3206 48.8366 41.5474C46.9548 41.7752 44.9916 41.8658 43.3415 41.884L43.336 41.884C41.6851 41.884 39.8676 41.8115 38.2225 41.6429C36.5939 41.476 35.088 41.2107 34.0827 40.806C33.1444 40.4528 32.1224 39.7391 31.8993 38.445L31.8975 38.4347L31.8976 38.4346C31.5988 36.4552 31.7858 33.6963 32.1166 31.9319C32.2029 31.4715 32.5284 31.0861 32.9139 30.8444C33.3082 30.5972 33.8205 30.4632 34.3535 30.5601C35.4176 30.7536 35.9816 31.7272 35.8756 32.5221L35.8741 32.5338ZM34.264 40.34C36.136 41.096 40.06 41.384 43.336 41.384C46.612 41.348 51.112 41.024 53.704 39.908C54.172 39.692 54.532 38.972 54.28 38.252C54.064 37.496 53.164 37.244 52.66 37.46C50.212 38.252 46.648 38.72 43.336 38.72C40.6 38.72 36.604 38.324 35.452 37.856C35.236 37.784 35.164 37.712 35.164 37.604C34.948 35.948 35.092 34.04 35.38 32.456C35.452 31.916 35.056 31.196 34.264 31.052C33.472 30.908 32.716 31.448 32.608 32.024C32.284 33.752 32.104 36.452 32.392 38.36C32.572 39.404 33.4 40.016 34.264 40.34Z" fill="#E53880"/>
<path d="M61.8347 10.241C64.8716 8.45462 68.7541 10.2856 69.3077 13.7652L69.5971 15.5846C70.2282 19.5519 66.1599 22.606 62.5265 20.8925L60.6491 20.0071C57.0157 18.2937 56.7842 13.2118 60.2467 11.1751L61.8347 10.241Z" fill="#E53880"/>
<path d="M62.8738 12.7218C64.3191 12.1598 65.9402 12.9243 66.426 14.3969V14.3969C67.171 16.6553 64.8511 18.7081 62.7002 17.6938V17.6938C60.5493 16.6795 60.6574 13.5836 62.8738 12.7218V12.7218Z" fill="white"/>
<path d="M67.6843 4.92433C67.093 6.6516 65.5459 7.68155 64.2287 7.22478C62.9115 6.76801 62.323 4.9975 62.9142 3.27023C63.5054 1.54296 65.0526 0.513012 66.3698 0.969778C67.687 1.42654 68.2755 3.19706 67.6843 4.92433Z" fill="#E53880"/>
<path d="M61.231 6.57763C61.0599 8.2549 59.8002 9.48727 58.4173 9.3302C57.0344 9.17313 56.0521 7.68611 56.2232 6.00883C56.3944 4.33156 57.6541 3.09919 59.037 3.25626C60.4199 3.41333 61.4022 4.90036 61.231 6.57763Z" fill="#E53880"/>
<path d="M73.3389 8.68296C72.1064 10.0331 70.2659 10.3753 69.228 9.44718C68.1901 8.51906 68.3479 6.67213 69.5804 5.32195C70.8129 3.97177 72.6534 3.62962 73.6913 4.55773C74.7292 5.48585 74.5715 7.33277 73.3389 8.68296Z" fill="#E53880"/>
<path d="M75.9218 15.149C74.4789 16.4195 72.553 16.6133 71.6203 15.5819C70.6875 14.5505 71.1011 12.6845 72.5439 11.4141C73.9868 10.1436 75.9126 9.94977 76.8454 10.9811C77.7782 12.0125 77.3646 13.8785 75.9218 15.149Z" fill="#E53880"/>
</svg>
